<svg xmlns="http://www.w3.org/2000/svg" width="1745.444" height="840.744" viewBox="0 0 1745.444 840.744"><g transform="translate(149.687 144.203)" opacity="0.15"><path d="M890.179,218.1l-46.7,435.065L460.111,884.969l199-550.683c4.854-15.689,3.625-35.719-9.2-47.681-13.006-12.125-27.691-15.258-49.319-8.541L51.446,476.8,283.336,89.247S729.748,44.229,748.714,44.229a143.527,143.527,0,0,1,143.6,143.513c0,8.623-.7,22.2-2.13,30.353" transform="translate(-201.133 -188.428)" fill="#ddd"/><path d="M97.694,218.1l46.636,435.065L529.278,884.972,328.745,334.29c-4.834-15.689-3.646-35.719,9.155-47.681,13.026-12.125,27.711-15.259,49.442-8.541L938.209,475.386,704.722,89.251S259.19,43.741,239.159,44.233c-79.3,1.987-143.636,64.25-143.636,143.513,0,8.623.676,22.2,2.171,30.353" transform="translate(657.547 -188.432)" fill="#ddd"/></g></svg>