<svg xmlns="http://www.w3.org/2000/svg" xmlns:xlink="http://www.w3.org/1999/xlink" width="1280" height="657" viewBox="0 0 1280 657"><defs><clipPath id="a"><rect width="1280" height="657" transform="translate(0 1236)" fill="#ddd" opacity="0.4"/></clipPath></defs><g transform="translate(0 -1236)" clip-path="url(#a)"><g transform="translate(-206.607 1122.583)" opacity="0.1"><path d="M866.034,691.905,820.681,269.364,448.346,44.229l193.268,534.83c4.714,15.237,3.521,34.691-8.931,46.308-12.631,11.776-26.893,14.819-47.9,8.295L51.446,440.652,276.661,817.044s433.561,43.722,451.981,43.722A139.4,139.4,0,0,0,868.1,721.385c0-8.374-.676-21.563-2.069-29.48" transform="translate(-51.446 -44.229)" fill="#fff"/><path d="M97.632,691.9l45.294-422.541L516.791,44.229l-194.76,534.83c-4.694,15.237-3.541,34.691,8.892,46.308,12.651,11.776,26.914,14.819,48.019,8.295L913.951,442.024,687.185,817.044s-432.706,44.2-452.16,43.722c-77.021-1.93-139.5-62.4-139.5-139.382,0-8.374.657-21.563,2.109-29.48" transform="translate(781.247 -44.229)" fill="#fff"/></g></g></svg>