<svg xmlns="http://www.w3.org/2000/svg" xmlns:xlink="http://www.w3.org/1999/xlink" width="136.106" height="110.47" viewBox="0 0 136.106 110.47">
  <defs>
    <clipPath id="clip-path">
      <rect id="Retângulo_35" data-name="Retângulo 35" width="136.106" height="110.47" fill="none"/>
    </clipPath>
  </defs>
  <g id="Logo" transform="translate(0 -20)">
    <g id="Grupo_16" data-name="Grupo 16" transform="translate(0 20)" clip-path="url(#clip-path)">
      <path id="Caminho_6" data-name="Caminho 6" d="M62.921,145.724H61.58v4.807h1.331a2.405,2.405,0,0,0,.009-4.807m-.25,3.994h-.152v-3.172h.152a1.586,1.586,0,1,1,0,3.172" transform="translate(-17.031 -40.302)" fill="#dc2730"/>
      <path id="Caminho_7" data-name="Caminho 7" d="M70.439,146.543v1.06h1.49v.815h-1.49v1.3h1.547v.816H69.5v-4.808h2.487v.817Z" transform="translate(-19.221 -40.303)" fill="#dc2730"/>
      <path id="Caminho_8" data-name="Caminho 8" d="M78.639,146.739a.864.864,0,0,0-.721-.394.573.573,0,0,0-.586.542c0,.81,1.906.471,1.906,2.084a1.519,1.519,0,0,1-1.582,1.645,1.7,1.7,0,0,1-1.477-.936l.606-.592a.985.985,0,0,0,.867.7.641.641,0,0,0,.617-.7c0-.5-.456-.638-.833-.783-.619-.255-1.072-.567-1.072-1.313a1.4,1.4,0,0,1,1.4-1.44,1.962,1.962,0,0,1,1.314.533Z" transform="translate(-21.069 -40.256)" fill="#dc2730"/>
      <path id="Caminho_9" data-name="Caminho 9" d="M85.028,145.724H83.687v4.807h1.341a2.4,2.4,0,0,0,0-4.807m-.25,3.994h-.152v-3.172h.152a1.586,1.586,0,1,1,0,3.172" transform="translate(-23.145 -40.302)" fill="#dc2730"/>
      <path id="Caminho_10" data-name="Caminho 10" d="M92.3,146.543v1.06h1.493v.815H92.3v1.3h1.55v.816H91.359v-4.808h2.486v.817Z" transform="translate(-25.267 -40.303)" fill="#dc2730"/>
      <path id="Caminho_11" data-name="Caminho 11" d="M103.853,146.543v-.817h1.57v4.808h-.939v-3.991Z" transform="translate(-28.722 -40.303)" fill="#dc2730"/>
      <path id="Caminho_12" data-name="Caminho 12" d="M115.72,146.543v-.817h3.437l-2.635,4.936-.77-.441,1.984-3.679Z" transform="translate(-32.004 -40.303)" fill="#dc2730"/>
      <path id="Caminho_13" data-name="Caminho 13" d="M111.254,147.957a1.163,1.163,0,0,0,.715-1.053,1.593,1.593,0,0,0-3.172,0,1.163,1.163,0,0,0,.715,1.053,1.227,1.227,0,0,0-.875,1.225,1.618,1.618,0,0,0,1.8,1.519,1.539,1.539,0,0,0,1.69-1.519,1.226,1.226,0,0,0-.877-1.225m-.875-1.84a.732.732,0,1,1-.725.731.729.729,0,0,1,.725-.731m0,3.9a.84.84,0,1,1,.839-.839.837.837,0,0,1-.839.839" transform="translate(-30.045 -40.23)" fill="#dc2730"/>
      <path id="Caminho_14" data-name="Caminho 14" d="M22.493,91.65a1.581,1.581,0,0,0-1.2-.581,1.885,1.885,0,0,0-.007,3.728,1.661,1.661,0,0,0,1.211-.582v1.27a2.881,2.881,0,0,1-1.24.326,2.885,2.885,0,0,1,.021-5.756,2.566,2.566,0,0,1,1.219.318Z" transform="translate(-5.138 -24.906)" fill="#033b74"/>
      <path id="Caminho_15" data-name="Caminho 15" d="M30.039,90.058a2.883,2.883,0,1,0,2.706,2.868,2.687,2.687,0,0,0-2.706-2.868m0,4.7a1.844,1.844,0,1,1,1.6-1.877,1.674,1.674,0,0,1-1.6,1.877" transform="translate(-7.559 -24.907)" fill="#033b74"/>
      <path id="Caminho_16" data-name="Caminho 16" d="M39.012,94.795h1.756v.927H37.946V90.257h1.066Z" transform="translate(-10.495 -24.962)" fill="#033b74"/>
      <path id="Caminho_17" data-name="Caminho 17" d="M47.1,87.675,46.23,88.89l.518.322,1.09-1.09Zm1.152,2.8v-.929H45.426v5.468h2.823v-.929h-1.76V92.6h1.7v-.929h-1.7v-1.2Z" transform="translate(-12.563 -24.248)" fill="#033b74"/>
      <path id="Caminho_18" data-name="Caminho 18" d="M57.847,92.76V92.9c0,1.545-.791,2.914-2.486,2.914a2.679,2.679,0,0,1-2.6-2.854,2.717,2.717,0,0,1,2.667-2.9,2.359,2.359,0,0,1,2.16,1.3l-.942.509A1.386,1.386,0,0,0,55.4,91c-1.031,0-1.537,1.05-1.537,1.959a1.728,1.728,0,0,0,1.545,1.911,1.288,1.288,0,0,0,1.245-1.239h-1.16v-.87Z" transform="translate(-14.591 -24.906)" fill="#033b74"/>
      <rect id="Retângulo_33" data-name="Retângulo 33" width="1.064" height="5.465" transform="translate(45.531 65.295)" fill="#033b74"/>
      <path id="Caminho_19" data-name="Caminho 19" d="M70.154,90.058a2.883,2.883,0,1,0,2.7,2.868,2.681,2.681,0,0,0-2.7-2.868m0,4.7a1.844,1.844,0,1,1,1.6-1.877,1.682,1.682,0,0,1-1.6,1.877" transform="translate(-18.654 -24.907)" fill="#033b74"/>
      <path id="Caminho_20" data-name="Caminho 20" d="M85.335,93.938h.015l1.217-3.68h1.147L85.59,95.866h-.624l-2.086-5.608h1.145Z" transform="translate(-22.922 -24.962)" fill="#033b74"/>
      <rect id="Retângulo_34" data-name="Retângulo 34" width="1.066" height="5.465" transform="translate(67.489 65.295)" fill="#033b74"/>
      <path id="Caminho_21" data-name="Caminho 21" d="M101.507,91.4a.985.985,0,0,0-.818-.448.65.65,0,0,0-.667.615c0,.922,2.168.539,2.168,2.371a1.73,1.73,0,0,1-1.8,1.871,1.941,1.941,0,0,1-1.682-1.067l.69-.673a1.121,1.121,0,0,0,.986.8.73.73,0,0,0,.7-.789c0-.566-.523-.726-.949-.893-.7-.289-1.219-.645-1.219-1.494a1.592,1.592,0,0,1,1.6-1.637,2.245,2.245,0,0,1,1.492.608Z" transform="translate(-27.3 -24.906)" fill="#033b74"/>
      <path id="Caminho_22" data-name="Caminho 22" d="M110.451,91.65a1.577,1.577,0,0,0-1.2-.581,1.884,1.884,0,0,0-.007,3.728,1.657,1.657,0,0,0,1.21-.582v1.27a2.884,2.884,0,0,1-1.241.326,2.885,2.885,0,0,1,.021-5.756,2.567,2.567,0,0,1,1.22.318Z" transform="translate(-29.464 -24.906)" fill="#033b74"/>
      <path id="Caminho_23" data-name="Caminho 23" d="M117.89,90.058a2.883,2.883,0,1,0,2.7,2.868,2.682,2.682,0,0,0-2.7-2.868m0,4.7a1.844,1.844,0,1,1,1.6-1.877,1.675,1.675,0,0,1-1.6,1.877" transform="translate(-31.856 -24.907)" fill="#033b74"/>
      <path id="Caminho_24" data-name="Caminho 24" d="M126.022,90.257h.875l2.774,3.674h.014V90.257h1.066v5.465h-.841L127.1,92.01h-.014v3.711h-1.066Z" transform="translate(-34.853 -24.962)" fill="#033b74"/>
      <path id="Caminho_25" data-name="Caminho 25" d="M137.957,90.257h-1.519v5.468h1.519a2.735,2.735,0,0,0,0-5.468m-.276,4.539H137.5v-3.61h.179a1.805,1.805,0,1,1,0,3.61" transform="translate(-37.734 -24.962)" fill="#033b74"/>
      <path id="Caminho_26" data-name="Caminho 26" d="M145.964,91.185v1.2h1.7v.927h-1.7V94.8h1.763v.926H144.9V90.257h2.829v.928Z" transform="translate(-40.074 -24.962)" fill="#033b74"/>
      <path id="Caminho_27" data-name="Caminho 27" d="M159.249,90.257h-1.518v5.468h1.51a2.735,2.735,0,0,0,.009-5.468m-.286,4.539h-.17v-3.61h.17a1.805,1.805,0,1,1,0,3.61" transform="translate(-43.623 -24.962)" fill="#033b74"/>
      <path id="Caminho_28" data-name="Caminho 28" d="M167.1,91.185v1.2H168.8v.927H167.1V94.8h1.764v.926h-2.829V90.257h2.829v.928Z" transform="translate(-45.92 -24.962)" fill="#033b74"/>
      <path id="Caminho_29" data-name="Caminho 29" d="M39.548,106.325a5.978,5.978,0,0,0-1.28,1.869c0-.458.007-.943.01-1.364.005-.5.009-.933.009-1.165v-.144h-.145c-.144,0-.579,0-1.107,0-.839.005-1.443.009-1.992.009h-.237l1.058,2.1v12.026h3.811l-1.032-2.114V113.96a9.581,9.581,0,0,1,.845-4.529,2.687,2.687,0,0,1,2.523-1.468,4.188,4.188,0,0,1,.779.077l.163.03.012-2.784h-.736a3.589,3.589,0,0,0-2.68,1.039" transform="translate(-9.626 -29.119)" fill="#033b74"/>
      <path id="Caminho_30" data-name="Caminho 30" d="M91.657,107.923a2.756,2.756,0,0,1-1.811-2.4,2.432,2.432,0,0,1,.854-1.946,3.993,3.993,0,0,1,2.49-.68,6.825,6.825,0,0,1,3.173.6l.141-2.307a14.749,14.749,0,0,0-3.192-.506,6.842,6.842,0,0,0-4.481,1.386,4.336,4.336,0,0,0-1.746,3.4,3.952,3.952,0,0,0,2.293,4.132s2.329,1.088,3.574,1.672c1.22.572,1.811,1.317,1.811,2.281a2.474,2.474,0,0,1-.96,2.162,4.506,4.506,0,0,1-2.585.675,9.424,9.424,0,0,1-1.741-.164,15.177,15.177,0,0,1-2.032-.467l-.184-.07-.143,2.52.116.032a17.057,17.057,0,0,0,3.787.4,6.987,6.987,0,0,0,4.682-1.487,5.015,5.015,0,0,0,1.745-3.938c0-3.971-3.914-4.423-5.789-5.3" transform="translate(-24.082 -27.846)" fill="#033b74"/>
      <path id="Caminho_31" data-name="Caminho 31" d="M151.395,105.668h-2.759v6.713a6.163,6.163,0,0,1-1.069,3.721,3.176,3.176,0,0,1-2.682,1.439,1.917,1.917,0,0,1-1.691-.694,3.958,3.958,0,0,1-.5-2.212V105.63h-.564c-.372,0-.957,0-2.1,0h-.145l.046,9.766a5.12,5.12,0,0,0,.98,3.287,3.966,3.966,0,0,0,3.266,1.241,5.261,5.261,0,0,0,3.041-.881,5.564,5.564,0,0,0,1.694-1.828c.062.849.271,2.222.3,2.419l.019.123,4.192.012V117.7l-2.03-.012Z" transform="translate(-38.689 -29.213)" fill="#033b74"/>
      <path id="Caminho_32" data-name="Caminho 32" d="M9.864,102.413a6.855,6.855,0,0,0-4.531-1.359c-4.216,0-5.1-.026-5.11-.026L0,101.037l1.045,2.108v15.369H4.682l-1.045-2.108v-4.513H4.842a7.1,7.1,0,0,0,4.78-1.608,5.245,5.245,0,0,0,1.868-4.146,4.606,4.606,0,0,0-1.626-3.726M7.54,108.792a4.3,4.3,0,0,1-2.868.912c-.249,0-.491,0-.723-.019-.187-.018-.347-.035-.5-.054v-6.389H4.9a4.2,4.2,0,0,1,2.815.786,2.921,2.921,0,0,1,.9,2.332,3.047,3.047,0,0,1-1.072,2.43" transform="translate(0 -27.941)" fill="#033b74"/>
      <path id="Caminho_33" data-name="Caminho 33" d="M22.468,105.4c-3.664,0-6.648,3.253-6.648,7.255s2.984,7.256,6.648,7.256,6.656-3.252,6.656-7.256-2.984-7.255-6.656-7.255m-.08,12.411c-2.154,0-3.9-2.3-3.9-5.12s1.751-5.111,3.9-5.111,3.914,2.3,3.914,5.111-1.751,5.12-3.914,5.12" transform="translate(-4.375 -29.15)" fill="#033b74"/>
      <path id="Caminho_34" data-name="Caminho 34" d="M67.4,105.4c-3.673,0-6.656,3.253-6.656,7.255s2.983,7.256,6.656,7.256,6.656-3.252,6.656-7.256S71.069,105.4,67.4,105.4m-.08,12.411c-2.162,0-3.914-2.3-3.914-5.12s1.751-5.111,3.914-5.111,3.9,2.3,3.9,5.111-1.751,5.12-3.9,5.12" transform="translate(-16.799 -29.15)" fill="#033b74"/>
      <path id="Caminho_35" data-name="Caminho 35" d="M176.392,105.4c-3.673,0-6.657,3.253-6.657,7.255s2.984,7.256,6.657,7.256,6.657-3.252,6.657-7.256-2.984-7.255-6.657-7.255m-.089,12.411c-2.154,0-3.9-2.3-3.9-5.12s1.751-5.111,3.9-5.111,3.914,2.3,3.914,5.111-1.751,5.12-3.914,5.12" transform="translate(-46.943 -29.15)" fill="#033b74"/>
      <path id="Caminho_36" data-name="Caminho 36" d="M132.636,105.591c-.493,0-1.529-.045-2.52-.1-.893-.045-1.743-.08-2.11-.08a7.115,7.115,0,0,0-5.433,2.091,8.135,8.135,0,0,0-1.955,5.754,7.678,7.678,0,0,0,1.34,4.888,4.7,4.7,0,0,0,3.886,1.7,4.821,4.821,0,0,0,2.771-.857,5.157,5.157,0,0,0,1.456-1.52c-.01.1-.019.2-.019.286-.017.34-.027.768-.027,1.314v1.349a3.935,3.935,0,0,1-1.063,3.109,4.939,4.939,0,0,1-3.252.912c-.893,0-1.921.044-3.154,0v2.43c.2,0,2.17.027,2.948.027,2.689,0,4.6-.608,5.664-1.814a6.24,6.24,0,0,0,1.608-4.307V105.591Zm-2.61,6.755a6.829,6.829,0,0,1-.983,3.61,2.942,2.942,0,0,1-2.627,1.555,2.4,2.4,0,0,1-2.171-1.1,6.439,6.439,0,0,1-.715-3.378,6.164,6.164,0,0,1,1.109-4.074,3.913,3.913,0,0,1,3.1-1.269c.447,0,.858-.009,1.269-.009.339,0,.679-.009,1.019-.009Z" transform="translate(-33.359 -29.153)" fill="#033b74"/>
      <path id="Caminho_37" data-name="Caminho 37" d="M113.157,107.115a5.229,5.229,0,0,0-4.28-1.777,5.619,5.619,0,0,0-4.6,2.055,8.094,8.094,0,0,0-1.653,5.255c0,2.429.483,4.046,1.581,5.209a6.745,6.745,0,0,0,4.816,1.956h4.629v-2.322h-4.36a3.723,3.723,0,0,1-2.877-1.376,4.354,4.354,0,0,1-.938-3.208h8.935s.491-3.656-1.251-5.791M105.6,110.85a3.641,3.641,0,0,1,.965-2.573,3.508,3.508,0,0,1,2.475-.839,2.689,2.689,0,0,1,2.251,1.17,4.2,4.2,0,0,1,.653,2.243Z" transform="translate(-28.382 -29.133)" fill="#033b74"/>
      <path id="Caminho_38" data-name="Caminho 38" d="M163.6,106.325a5.932,5.932,0,0,0-1.281,1.869c0-.458.009-.943.011-1.364,0-.5.009-.933.009-1.165v-.144h-.144c-.145,0-.579,0-1.108,0-.838.005-1.441.009-1.994.009h-.236l1.06,2.1v12.026h3.809l-1.032-2.114V113.96a9.564,9.564,0,0,1,.844-4.529,2.689,2.689,0,0,1,2.523-1.468,4.183,4.183,0,0,1,.78.077l.163.03.011-2.784h-.735a3.593,3.593,0,0,0-2.681,1.039" transform="translate(-43.934 -29.119)" fill="#033b74"/>
      <path id="Caminho_43" data-name="Caminho 43" d="M124.519,147.957a1.155,1.155,0,0,0,.707-1.053,1.589,1.589,0,0,0-3.164,0,1.163,1.163,0,0,0,.715,1.053,1.226,1.226,0,0,0-.875,1.225,1.649,1.649,0,0,0,1.8,1.519,1.515,1.515,0,0,0,1.69-1.519,1.226,1.226,0,0,0-.877-1.225m-.875-1.84a.732.732,0,1,1-.732.731.735.735,0,0,1,.732-.731m0,3.9a.84.84,0,1,1,.84-.839.838.838,0,0,1-.84.839" transform="translate(-33.714 -40.23)" fill="#dc2730"/>
      <path id="Caminho_44" data-name="Caminho 44" d="M57.345,106.667v-2.434H53.463v-3.307H50.682v3.307H47.945v2.434h2.737V114.4a5.15,5.15,0,0,0,.828,3.3,3.838,3.838,0,0,0,3.018.982c.914,0,2.732-.064,2.732-.064v-2.356s-1.575-.007-1.958-.007c-.747,0-1.328-.133-1.56-.476a4.993,4.993,0,0,1-.28-2.267v-6.848Z" transform="translate(-13.26 -27.913)" fill="#033b74"/>
      <g id="Grupo_55" data-name="Grupo 55">
        <path id="Caminho_39" data-name="Caminho 39" d="M81.046,23.677,79.4,8.313,65.9.072l6.978,19.5a1.654,1.654,0,0,1-.321,1.683,1.594,1.594,0,0,1-1.744.3l-19.446-7.07,8.238,13.742s15.769,1.588,16.439,1.588a5.072,5.072,0,0,0,5.073-5.07,7.473,7.473,0,0,0-.076-1.072" transform="translate(-14.207 -0.02)" fill="#db0718"/>
        <path id="Caminho_40" data-name="Caminho 40" d="M95.592,23.657,97.24,8.293,110.836,0l-7.083,19.554a1.66,1.66,0,0,0,.323,1.683,1.6,1.6,0,0,0,1.746.3l19.457-7.07-8.246,13.742S100.978,29.8,100.588,29.8a5.071,5.071,0,0,1-5.073-5.07,7.172,7.172,0,0,1,.077-1.072" transform="translate(-26.416)" fill="#db0718"/>
        <path id="Caminho_41" data-name="Caminho 41" d="M81.071,50.37,79.422,65.737,65.881,73.925,72.91,54.474a1.657,1.657,0,0,0-.325-1.684,1.6,1.6,0,0,0-1.742-.3l-19.4,7.019,8.191-13.689s15.768-1.59,16.438-1.59A5.07,5.07,0,0,1,81.147,49.3a7.458,7.458,0,0,1-.075,1.072" transform="translate(-14.228 -12.232)" fill="#db0718"/>
        <path id="Caminho_42" data-name="Caminho 42" d="M95.6,50.37l1.647,15.367,13.6,8.188-7.083-19.451a1.659,1.659,0,0,1,.323-1.684,1.6,1.6,0,0,1,1.746-.3l19.457,6.97-8.247-13.639S101.3,44.212,100.6,44.229A5.117,5.117,0,0,0,95.523,49.3,7.159,7.159,0,0,0,95.6,50.37" transform="translate(-26.418 -12.232)" fill="#db0718"/>
      </g>
    </g>
  </g>
</svg>
